<svg width="95" height="95" viewBox="0 0 95 95" fill="none" xmlns="http://www.w3.org/2000/svg">
<path d="M69.4037 51.4462C70.1285 53.9516 71.5348 56.2083 73.5092 58.0112C75.2058 59.5603 77.2384 60.6544 79.4316 61.2351C75.8513 62.8005 72.5564 64.9627 69.734 67.7164L69.4628 67.9857L67.9864 69.4623C63.5142 73.9337 60.549 79.6269 59.1458 85.7931C58.6277 88.0676 57.4193 90.2077 55.5479 91.9162C51.0234 96.0467 43.9866 96.0254 39.487 91.8672C34.5011 87.2596 34.3889 79.4817 39.1439 74.7272C40.8036 73.0668 42.8399 72.0082 44.9738 71.5356C51.0891 70.1831 56.724 67.1824 61.194 62.8032L61.4318 62.5674L62.5664 61.4322C65.4569 58.5417 67.7586 55.1481 69.4037 51.4462Z" fill="#03618D"/>
<path d="M3.8265 38.7929C8.3261 34.635 15.3621 34.6133 19.8874 38.7439C21.7588 40.4533 22.9659 42.5929 23.484 44.8683C24.8621 50.9233 27.7472 56.5228 32.0856 60.9568L32.3246 61.1977L33.801 62.6757C36.6666 65.5412 40.0367 67.785 43.7094 69.3992C41.3457 70.0562 39.1983 71.2992 37.4632 73.0341C35.6818 74.8164 34.4349 76.9721 33.7907 79.3247C32.1946 75.6964 29.9699 72.3626 27.1783 69.5036L26.9059 69.2278L25.7712 68.0939C21.2639 63.5866 15.5378 60.502 9.31332 59.1245C7.17935 58.6528 5.14309 57.5937 3.48341 55.9341C-1.27183 51.1789 -1.15948 43.4006 3.8265 38.7929Z" fill="#03618D"/>
<path d="M61.2056 15.6664C62.8026 19.2975 65.0284 22.635 67.8219 25.4953L68.0943 25.771L69.229 26.9049C73.7363 31.4131 79.4624 34.4968 85.6869 35.8744C87.8209 36.3461 89.8562 37.4055 91.5168 39.066C96.2718 43.8212 96.1594 51.5983 91.1737 56.206C86.6742 60.3642 79.6374 60.3855 75.1129 56.255C73.2413 54.5464 72.033 52.4062 71.5149 50.1306C70.1367 44.0749 67.2524 38.4767 62.9133 34.0421L62.6743 33.8011L61.1992 32.3245C58.3309 29.4562 54.9584 27.2113 51.2831 25.5971C53.6494 24.9392 55.7993 23.692 57.537 21.9544C59.3159 20.1755 60.5606 18.0183 61.2056 15.6664Z" fill="#03618D"/>
<path d="M39.451 3.08398C43.9756 -1.04684 51.0135 -1.02532 55.5132 3.13294C60.4986 7.74072 60.6113 15.5187 55.8563 20.2729C54.1967 21.9333 52.1602 22.9919 50.0264 23.4646C43.911 24.8171 38.2762 27.8178 33.8062 32.1969L33.5672 32.4327L32.4325 33.5666C29.5421 36.4571 27.2416 39.8509 25.5965 43.5527C24.8717 41.0481 23.4642 38.7919 21.4897 36.9889C19.7924 35.44 17.7616 34.3458 15.5686 33.765C19.149 32.1996 22.4437 30.0362 25.2662 27.2825L25.5374 27.0145L27.0138 25.5365C31.4858 21.0653 34.4512 15.373 35.8544 9.20705C36.3724 6.93173 37.5798 4.79249 39.451 3.08398Z" fill="#03618D"/>
</svg>
