<svg width="194" height="72" viewBox="0 0 194 72" fill="none" xmlns="http://www.w3.org/2000/svg">
<path fill-rule="evenodd" clip-rule="evenodd" d="M52.7463 38.9913C53.2971 40.8901 54.3662 42.5998 55.8668 43.9662C57.1562 45.1402 58.7004 45.9697 60.3672 46.4098C57.6461 47.5963 55.1422 49.2354 52.9971 51.3225L52.7906 51.5258L51.6688 52.6452C48.27 56.034 46.0165 60.3485 44.95 65.0218C44.5563 66.7458 43.6385 68.3677 42.2161 69.6626C38.7775 72.7934 33.4297 72.7771 30.01 69.6256C26.2207 66.1334 26.1353 60.2387 29.7493 56.6353C31.0106 55.3768 32.5581 54.5746 34.18 54.2164C38.8275 53.1914 43.1096 50.9171 46.5068 47.5982L46.6879 47.4194L47.5503 46.5593C49.7471 44.3686 51.496 41.797 52.7463 38.9913ZM100.706 9.98674C106.039 9.98674 114.452 11.7848 114.452 11.7848L114.002 19.8749L112.744 19.7344L111.793 19.6338C109.226 19.3675 105.012 18.9758 102.434 18.9758C95.7483 18.9758 93.0437 23.5458 93.0437 36.1304C93.0437 47.5169 94.9974 53.7342 102.734 53.7342C106.34 53.7342 114.002 52.9099 114.002 52.9099L114.377 61.0754L113.971 61.1632L113.281 61.3047C111.009 61.7576 105.593 62.7233 100.706 62.7233C86.0584 62.7233 82.3773 52.9853 82.3773 36.1304C82.3773 17.4781 87.7858 9.98674 100.706 9.98674ZM130.69 10.7342V45.4191C130.69 51.3373 132.729 53.7341 138.513 53.7341C144.239 53.7341 146.294 51.385 146.335 45.5956L146.335 45.4191V24.1594C147.799 25.0656 149.518 25.598 151.363 25.598C153.305 25.598 155.114 25.0155 156.624 24.0193L156.765 23.9247V44.5201C156.765 57.2549 151.609 62.7232 138.839 62.7232C126.196 62.7232 121.016 57.3637 120.914 44.9L120.913 44.5201V10.7342H130.69ZM193.68 10.8858V19.8749H173.698V31.8608H189.474V40.8499H173.698V52.8351H193.68V61.8242H163.333V10.8858H193.68ZM15.1142 29.3645C16.5366 30.66 17.4544 32.2813 17.8481 34.0059C18.8955 38.5951 21.088 42.8389 24.3853 46.1994L24.5662 46.3819L25.6887 47.5013C27.8666 49.6731 30.4271 51.3737 33.2184 52.5971C31.4219 53.0951 29.7903 54.0377 28.4715 55.3528C27.1176 56.7036 26.1705 58.3372 25.6809 60.1203C24.4678 57.3702 22.7769 54.8434 20.6551 52.6764L20.4484 52.4678L19.586 51.6077C16.1605 48.1916 11.8086 45.8547 7.07806 44.8107C5.45622 44.4531 3.9087 43.6503 2.64735 42.3924C-0.96658 38.7885 -0.881186 32.8937 2.90809 29.4015C6.32776 26.25 11.675 26.2337 15.1142 29.3645ZM46.5157 11.8741C47.7295 14.6261 49.421 17.1554 51.544 19.3232L51.7509 19.5318L52.6133 20.3919C56.0388 23.8086 60.3906 26.1456 65.1212 27.1896C66.743 27.5471 68.2899 28.3493 69.5519 29.6078C73.1658 33.2118 73.0805 39.1066 69.2912 42.5987C65.8715 45.7503 60.5236 45.7659 57.085 42.6351C55.6627 41.3402 54.7449 39.719 54.3511 37.9943C53.3037 33.4045 51.1113 29.1614 47.8134 25.8002L47.6324 25.6177L46.5105 24.499C44.3307 22.3252 41.7682 20.6239 38.975 19.4005C40.7735 18.9019 42.4071 17.9561 43.7277 16.639C45.0797 15.2908 46.0255 13.6565 46.5157 11.8741ZM42.1892 2.37441C45.9785 5.86656 46.0639 11.7613 42.4499 15.3647C41.1886 16.6232 39.6411 17.4254 38.0192 17.7836C33.3717 18.8086 29.0896 21.0829 25.6924 24.4018L25.5113 24.5806L24.6489 25.4407C22.4521 27.6314 20.7032 30.203 19.4529 33.0087C18.9021 31.1105 17.833 29.4002 16.3324 28.0338C15.0424 26.8598 13.4988 26.0303 11.832 25.5902C14.5531 24.4037 17.057 22.7646 19.2021 20.6775L19.4086 20.4742L20.5304 19.3548C23.9292 15.966 26.1827 11.6515 27.2492 6.97817C27.6429 5.25354 28.5607 3.63228 29.9831 2.33735C33.4216 -0.793362 38.7695 -0.77711 42.1892 2.37441ZM151.363 10.4114C154.488 10.4114 157.022 12.9382 157.022 16.0546C157.022 19.171 154.488 21.6978 151.363 21.6978C148.238 21.6978 145.704 19.171 145.704 16.0546C145.704 12.9382 148.238 10.4114 151.363 10.4114Z" fill="#03618D"/>
</svg>
