<svg width="403" height="128" viewBox="0 0 403 128" fill="none" xmlns="http://www.w3.org/2000/svg">
<path d="M78.4708 96.3129C72.0287 98.0202 65.3727 98.7801 58.7118 98.5687C39.3403 98.5687 32.2961 89.3692 32.2961 63.6387C32.2961 37.9083 39.3403 28.7087 58.7118 28.7087C64.9009 28.5154 71.0872 29.1736 77.0972 30.665L76.2167 37.2209C70.4041 36.5834 64.559 36.2892 58.7118 36.3398C45.504 36.3398 41.3127 43.0896 41.3127 63.6387C41.3127 84.1878 45.5216 90.9377 58.7118 90.9377C65.0228 91.0567 71.3336 90.6973 77.5903 89.8626L78.4708 96.3129Z" fill="#03618D"/>
<path d="M98.1289 76.2577L91.4721 97.406H82.5788L104.293 32.1987C104.686 30.759 106.025 29.7853 107.515 29.8548H116.514C118.004 29.7853 119.343 30.759 119.737 32.1987L141.451 97.406H132.522L125.865 76.2577H98.1289ZM115.053 42.015C114.471 40.2527 113.873 38.2965 113.397 36.5341H110.668L109.012 42.015L100.506 68.8205H123.576L115.053 42.015Z" fill="#03618D"/>
<path d="M201.479 93.9691C201.604 94.8926 201.297 95.8222 200.647 96.4897C199.997 97.1573 199.077 97.4885 198.151 97.3881H189.751C187.994 97.4869 186.405 96.351 185.929 94.6564L163.141 46.8083C161.669 43.9312 160.392 40.9577 159.32 37.9084H157.752C158.052 40.8515 158.14 43.8828 158.14 46.8083V97.3881H149.528V33.291C149.405 32.3519 149.726 31.4089 150.395 30.7392C151.064 30.0695 152.006 29.749 152.945 29.872H161.063C162.818 29.7799 164.403 30.9131 164.885 32.6037L186.986 79.2886C188.359 82.0203 190.121 85.7565 191.582 89.0697H193.238C193.044 85.545 192.938 82.2141 192.938 78.7952V29.872H201.444V93.9691H201.479Z" fill="#03618D"/>
<path d="M245.085 94.9558C244.609 96.4178 243.241 97.4021 241.704 97.3885H233.005C231.47 97.4173 230.105 96.4133 229.676 94.9382L209.248 29.8542H218.141L234.079 83.3771C234.766 85.8268 235.452 88.2764 236.034 90.7261H238.675C239.256 88.2764 239.943 85.7386 240.736 83.289L256.585 29.8542H265.478L245.085 94.9558Z" fill="#03618D"/>
<path d="M273.545 76.2577L266.888 97.406H257.995L279.709 32.1987C280.103 30.759 281.442 29.7853 282.932 29.8548H291.931C293.42 29.7853 294.759 30.759 295.153 32.1987L316.867 97.406H307.974L301.317 76.2577H273.545ZM290.469 42.015C289.888 40.2527 289.289 38.2965 288.813 36.5341H286.084L284.428 42.015L275.923 68.8205H298.992L290.469 42.015Z" fill="#03618D"/>
<path d="M336.113 65.2957C326.339 62.846 322.817 56.7835 322.817 46.5089C322.817 30.7534 329.667 28.6914 344.724 28.6914C351.452 28.6824 358.165 29.3377 364.765 30.6477L364.184 36.9041C358.513 36.6045 351.381 36.4106 345.111 36.4106C335.338 36.4106 331.516 36.7102 331.516 46.6852C331.516 54.1223 334.052 56.2724 340.022 57.7352L353.705 61.1541C364.078 63.6919 367.301 69.6663 367.301 80.1348C367.301 95.6964 360.45 98.5342 344.706 98.5342C337.691 98.5519 330.689 97.9325 323.785 96.6833L324.366 90.3212C335.813 90.7089 339.423 90.9028 345.006 90.8147C355.378 90.8147 358.601 89.2462 358.601 79.9585C358.601 72.1336 355.959 70.2655 350.095 68.8028L336.113 65.2957Z" fill="#03618D"/>
<path d="M33.1626 0H31.4016V26.4354H33.1626V0Z" fill="#03618D"/>
<path d="M6.10352e-05 32.6036L6.10352e-05 30.8413H26.4158V32.6036H6.10352e-05Z" fill="#03618D"/>
<path d="M33.1626 101.547H31.4016V127.982H33.1626V101.547Z" fill="#03618D"/>
<path d="M26.4165 95.3789V97.1413H0.000739071V95.3789H26.4165Z" fill="#03618D"/>
<path d="M369.82 26.4357H371.581V0.000326157H369.82V26.4357Z" fill="#03618D"/>
<path d="M376.564 32.6036V30.8413H402.98V32.6036H376.564Z" fill="#03618D"/>
<path d="M369.82 128H371.581V101.565H369.82V128Z" fill="#03618D"/>
<path d="M403 95.3789V97.1413H376.584V95.3789H403Z" fill="#03618D"/>
</svg>
